<svg width="36" height="36" viewBox="0 0 36 36" fill="none" xmlns="http://www.w3.org/2000/svg">
<circle cx="18" cy="18" r="18" fill="#2E2E2E"/>
<path d="M18 11C19.1 11 20 11.9 20 13C20 14.1 19.1 15 18 15C16.9 15 16 14.1 16 13C16 11.9 16.9 11 18 11ZM18 21C20.7 21 23.8 22.29 24 23H12C12.23 22.28 15.31 21 18 21ZM18 9C15.79 9 14 10.79 14 13C14 15.21 15.79 17 18 17C20.21 17 22 15.21 22 13C22 10.79 20.21 9 18 9ZM18 19C15.33 19 10 20.34 10 23V25H26V23C26 20.34 20.67 19 18 19Z" fill="white"/>
</svg>
