<svg width="36" height="36" viewBox="0 0 36 36" fill="none" xmlns="http://www.w3.org/2000/svg">
<circle cx="18" cy="18" r="18" fill="#B7B7B7"/>
<path d="M25.1593 18.98C25.1993 18.66 25.2293 18.34 25.2293 18C25.2293 17.66 25.1993 17.34 25.1593 17.02L27.2693 15.37C27.4593 15.22 27.5093 14.95 27.3893 14.73L25.3893 11.27C25.2993 11.11 25.1293 11.02 24.9493 11.02C24.8893 11.02 24.8293 11.03 24.7793 11.05L22.2893 12.05C21.7693 11.65 21.2093 11.32 20.5993 11.07L20.2193 8.42C20.1893 8.18 19.9793 8 19.7293 8H15.7293C15.4793 8 15.2693 8.18 15.2393 8.42L14.8593 11.07C14.2493 11.32 13.6893 11.66 13.1693 12.05L10.6793 11.05C10.6193 11.03 10.5593 11.02 10.4993 11.02C10.3293 11.02 10.1593 11.11 10.0693 11.27L8.06933 14.73C7.93933 14.95 7.99933 15.22 8.18933 15.37L10.2993 17.02C10.2593 17.34 10.2293 17.67 10.2293 18C10.2293 18.33 10.2593 18.66 10.2993 18.98L8.18933 20.63C7.99933 20.78 7.94933 21.05 8.06933 21.27L10.0693 24.73C10.1593 24.89 10.3293 24.98 10.5093 24.98C10.5693 24.98 10.6293 24.97 10.6793 24.95L13.1693 23.95C13.6893 24.35 14.2493 24.68 14.8593 24.93L15.2393 27.58C15.2693 27.82 15.4793 28 15.7293 28H19.7293C19.9793 28 20.1893 27.82 20.2193 27.58L20.5993 24.93C21.2093 24.68 21.7693 24.34 22.2893 23.95L24.7793 24.95C24.8393 24.97 24.8993 24.98 24.9593 24.98C25.1293 24.98 25.2993 24.89 25.3893 24.73L27.3893 21.27C27.5093 21.05 27.4593 20.78 27.2693 20.63L25.1593 18.98ZM23.1793 17.27C23.2193 17.58 23.2293 17.79 23.2293 18C23.2293 18.21 23.2093 18.43 23.1793 18.73L23.0393 19.86L23.9293 20.56L25.0093 21.4L24.3093 22.61L23.0393 22.1L21.9993 21.68L21.0993 22.36C20.6693 22.68 20.2593 22.92 19.8493 23.09L18.7893 23.52L18.6293 24.65L18.4293 26H17.0293L16.6793 23.52L15.6193 23.09C15.1893 22.91 14.7893 22.68 14.3893 22.38L13.4793 21.68L12.4193 22.11L11.1493 22.62L10.4493 21.41L11.5293 20.57L12.4193 19.87L12.2793 18.74C12.2493 18.43 12.2293 18.2 12.2293 18C12.2293 17.8 12.2493 17.57 12.2793 17.27L12.4193 16.14L11.5293 15.44L10.4493 14.6L11.1493 13.39L12.4193 13.9L13.4593 14.32L14.3593 13.64C14.7893 13.32 15.1993 13.08 15.6093 12.91L16.6693 12.48L16.8293 11.35L17.0293 10H18.4193L18.7693 12.48L19.8293 12.91C20.2593 13.09 20.6593 13.32 21.0593 13.62L21.9693 14.32L23.0293 13.89L24.2993 13.38L24.9993 14.59L23.9293 15.44L23.0393 16.14L23.1793 17.27ZM17.7293 14C15.5193 14 13.7293 15.79 13.7293 18C13.7293 20.21 15.5193 22 17.7293 22C19.9393 22 21.7293 20.21 21.7293 18C21.7293 15.79 19.9393 14 17.7293 14ZM17.7293 20C16.6293 20 15.7293 19.1 15.7293 18C15.7293 16.9 16.6293 16 17.7293 16C18.8293 16 19.7293 16.9 19.7293 18C19.7293 19.1 18.8293 20 17.7293 20Z" fill="black"/>
</svg>
